<?xml version="1.0" standalone="no"?>
<!DOCTYPE svg PUBLIC "-//W3C//DTD SVG 20010904//EN" "http://www.w3.org/TR/2001/REC-SVG-20010904/DTD/svg10.dtd">
<svg version="1.0" xmlns="http://www.w3.org/2000/svg" width="708pt" height="687pt"
	viewBox="0 0 708 687" preserveAspectRatio="xMidYMid meet">
	<metadata>Copyright © 2021 Belford Blaze Ltd. All rights reserved.</metadata>

	<defs>
        <linearGradient spreadMethod="pad" id="gradient" x1="0%" y1="0%" x2="100%" y2="100%">
            <stop offset="0%" style="stop-color: #00022e; stop-opacity: 1;" />
            <stop offset="25%" style="stop-color: #00022e; stop-opacity: 1;" />
            <stop offset="80%" style="stop-color: #1e90ff; stop-opacity: 1;" />
            <stop offset="100%" style="stop-color: #1e90ff; stop-opacity: 1;" />
        </linearGradient>
    </defs>

	<g transform="translate(0, 687) scale(0.1, -0.1)" fill="url(#gradient)">
		<path d="M2190 6723 c-356 -361 -574 -757 -700 -1276 -42 -171 -54 -325 -47
		-620 6 -275 15 -376 53 -569 100 -515 351 -991 718 -1362 261 -263 585 -432
		1041 -541 366 -88 631 -117 1205 -130 847 -20 1090 -66 1247 -237 87 -96 118
		-202 110 -378 -9 -178 -33 -246 -120 -337 -124 -131 -315 -200 -622 -222 -155
		-12 -732 -15 -898 -4 l-107 6 0 373 0 373 -52 5 c-29 3 -123 8 -208 10 -566
		20 -1070 190 -1480 500 -30 23 -95 72 -143 109 -89 68 -107 77 -107 55 0 -7
		44 -101 98 -208 163 -324 221 -541 177 -656 -72 -189 -310 -232 -441 -81 -76
		89 -110 190 -174 527 -140 731 -318 1128 -692 1540 -284 314 -547 478 -916
		571 -157 40 -172 28 -64 -47 164 -115 256 -191 359 -297 278 -287 462 -694
		502 -1112 6 -60 18 -348 26 -640 23 -825 35 -945 117 -1195 108 -328 282 -549
		548 -697 163 -90 300 -134 505 -161 118 -15 282 -17 1780 -17 1537 0 1658 1
		1768 18 644 98 1110 418 1306 898 77 188 101 347 101 659 -1 346 -53 559 -198
		803 -109 183 -294 391 -427 478 -106 70 -105 63 -23 155 147 164 206 263 267
		451 54 163 64 252 59 507 -5 196 -7 219 -36 326 -61 229 -147 384 -302 544
		-220 227 -508 368 -940 460 l-115 24 -1236 7 -1236 7 -7 -47 c-3 -26 -6 -75
		-6 -109 0 -81 -11 -166 -21 -166 -20 0 -196 128 -267 195 -94 88 -147 155
		-208 261 -170 299 -190 753 -53 1236 21 76 39 143 39 148 0 32 -51 -7 -180
		-137z m98 -2088 c47 -72 104 -139 206 -240 316 -314 642 -480 1179 -601 192
		-43 362 -63 379 -46 10 10 14 84 16 284 l4 271 371 -7 c582 -11 717 -25 846
		-91 77 -39 156 -118 193 -193 29 -59 33 -77 36 -168 5 -126 -11 -225 -45 -284
		-37 -63 -152 -171 -220 -207 -77 -42 -238 -97 -354 -122 -142 -30 -324 -43
		-639 -43 -255 -1 -296 1 -392 21 -210 43 -420 118 -580 207 -155 86 -403 296
		-518 438 -25 30 -49 55 -54 56 -13 0 1 -322 17 -397 17 -79 12 -77 -108 49
		-163 168 -292 362 -366 549 -84 212 -149 538 -149 742 l0 92 56 -105 c31 -58
		85 -150 122 -205z" />

		<path d="M160 6269 c0 -6 38 -77 84 -158 129 -224 198 -387 230 -543 8 -41 27
		-200 41 -353 37 -406 55 -522 107 -685 47 -147 152 -324 316 -530 139 -175
		492 -510 538 -510 22 0 11 28 -47 130 -135 235 -182 420 -249 980 -64 532
		-101 719 -178 899 -135 312 -378 562 -717 735 -89 46 -125 56 -125 35z" />
	</g>
</svg>
